<svg width="64" height="64" viewBox="0 0 64 64" fill="none" xmlns="http://www.w3.org/2000/svg">
  <!-- 星 -->
  <circle cx="16" cy="12" r="2" fill="#ffffff" opacity="0.8"/>
  <circle cx="48" cy="16" r="1.6" fill="#ffffff" opacity="0.6"/>
  <circle cx="12" cy="40" r="1.2" fill="#ffffff" opacity="0.7"/>
  <circle cx="52" cy="48" r="2.4" fill="#ffffff" opacity="0.9"/>
  <circle cx="32" cy="8" r="1" fill="#ffffff" opacity="0.5"/>
  <circle cx="8" cy="32" r="1.5" fill="#ffffff" opacity="0.6"/>
  <circle cx="56" cy="32" r="1.8" fill="#ffffff" opacity="0.7"/>
  
  <!-- 宇宙船/衛星本体（大きく） -->
  <ellipse cx="32" cy="32" rx="20" ry="12" fill="#1a1a1a" stroke="#ffffff" stroke-width="2"/>
  
  <!-- 宇宙船の詳細（大きく） -->
  <ellipse cx="32" cy="32" rx="16" ry="10" fill="#2a2a2a" opacity="0.8"/>
  <rect x="16" y="28" width="32" height="8" fill="#333333" opacity="0.6"/>
  
  <!-- 宇宙船の窓 -->
  <ellipse cx="32" cy="32" rx="8" ry="4" fill="#444444" opacity="0.4"/>
  <rect x="28" y="30" width="8" height="4" fill="#555555" opacity="0.3"/>
  
  <!-- アンテナ（大きく） -->
  <line x1="32" y1="20" x2="32" y2="8" stroke="#ffffff" stroke-width="3"/>
  <circle cx="32" cy="8" r="3" fill="#ffffff"/>
  
  <!-- アンテナのベース -->
  <rect x="30" y="20" width="4" height="6" fill="#ffffff" opacity="0.8"/>
  
  <!-- アンテナの先端 -->
  <circle cx="32" cy="8" r="1.5" fill="#00ffff" opacity="0.8">
    <animate attributeName="opacity" values="0.8;0.2;0.8" dur="2s" repeatCount="indefinite"/>
  </circle>
  
  <!-- 信号波（アンテナ先端から） -->
  <path d="M 32 8 Q 40 4 48 8 Q 40 12 32 8" stroke="#00ffff" stroke-width="1" fill="none" opacity="0.6"/>
  <path d="M 32 8 Q 24 4 16 8 Q 24 12 32 8" stroke="#00ffff" stroke-width="1" fill="none" opacity="0.4"/>
  <path d="M 32 8 Q 44 0 56 8 Q 44 16 32 8" stroke="#00ffff" stroke-width="0.8" fill="none" opacity="0.3"/>
  <path d="M 32 8 Q 20 0 8 8 Q 20 16 32 8" stroke="#00ffff" stroke-width="0.8" fill="none" opacity="0.2"/>
  
  <!-- 応答願うのメイン信号 -->
  <circle cx="32" cy="32" r="4" fill="#00ffff" opacity="0.6">
    <animate attributeName="opacity" values="0.6;0.1;0.6" dur="3s" repeatCount="indefinite"/>
  </circle>
  <circle cx="32" cy="32" r="2" fill="#00ffff" opacity="0.8">
    <animate attributeName="opacity" values="0.8;0.3;0.8" dur="1.5s" repeatCount="indefinite"/>
  </circle>
</svg>
