<svg width="200" height="200" viewBox="0 0 200 200" fill="none" xmlns="http://www.w3.org/2000/svg">
  <!-- クライミング関連アイコン -->
  <defs>
    <linearGradient id="iconGradient" x1="0%" y1="0%" x2="100%" y2="100%">
      <stop offset="0%" style="stop-color:#f97316;stop-opacity:0.9" />
      <stop offset="100%" style="stop-color:#eab308;stop-opacity:0.8" />
    </linearGradient>
  </defs>
  
  <!-- クライミングホールド -->
  <circle cx="50" cy="50" r="15" fill="url(#iconGradient)"/>
  <circle cx="100" cy="80" r="12" fill="url(#iconGradient)"/>
  <circle cx="150" cy="60" r="18" fill="url(#iconGradient)"/>
  <circle cx="80" cy="120" r="10" fill="url(#iconGradient)"/>
  <circle cx="130" cy="140" r="14" fill="url(#iconGradient)"/>
  
  <!-- ロープ -->
  <path d="M20,180 Q50,160 80,180 Q110,200 140,180 Q170,160 200,180" stroke="#64748b" stroke-width="3" fill="none" opacity="0.7"/>
  
  <!-- ハーネス -->
  <path d="M100,160 L120,170 L140,160 L130,180 L110,180 Z" fill="#475569" opacity="0.8"/>
  
  <!-- カラビナ -->
  <ellipse cx="60" cy="170" rx="8" ry="12" fill="#64748b" opacity="0.9"/>
  <ellipse cx="140" cy="170" rx="8" ry="12" fill="#64748b" opacity="0.9"/>
  
  <!-- 岩のテクスチャ -->
  <circle cx="30" cy="30" r="2" fill="#64748b" opacity="0.4"/>
  <circle cx="70" cy="40" r="3" fill="#475569" opacity="0.5"/>
  <circle cx="110" cy="35" r="2" fill="#64748b" opacity="0.3"/>
  <circle cx="150" cy="45" r="4" fill="#475569" opacity="0.4"/>
  <circle cx="190" cy="30" r="2" fill="#64748b" opacity="0.5"/>
</svg>
