<svg width="1920" height="1080" viewBox="0 0 1920 1080" fill="none" xmlns="http://www.w3.org/2000/svg">
  <!-- グラデーション定義 -->
  <defs>
    <!-- 山のグラデーション -->
    <linearGradient id="mountainGradient" x1="0%" y1="0%" x2="100%" y2="100%">
      <stop offset="0%" style="stop-color:#64748b;stop-opacity:0.8" />
      <stop offset="50%" style="stop-color:#475569;stop-opacity:0.6" />
      <stop offset="100%" style="stop-color:#1e293b;stop-opacity:0.4" />
    </linearGradient>
    
    <!-- 空のグラデーション -->
    <linearGradient id="skyGradient" x1="0%" y1="0%" x2="0%" y2="100%">
      <stop offset="0%" style="stop-color:#f97316;stop-opacity:0.3" />
      <stop offset="30%" style="stop-color:#eab308;stop-opacity:0.2" />
      <stop offset="70%" style="stop-color:#22c55e;stop-opacity:0.1" />
      <stop offset="100%" style="stop-color:#64748b;stop-opacity:0.05" />
    </linearGradient>
    
    <!-- 岩のグラデーション -->
    <linearGradient id="rockGradient" x1="0%" y1="0%" x2="100%" y2="100%">
      <stop offset="0%" style="stop-color:#94a3b8;stop-opacity:0.7" />
      <stop offset="50%" style="stop-color:#64748b;stop-opacity:0.8" />
      <stop offset="100%" style="stop-color:#475569;stop-opacity:0.9" />
    </linearGradient>
  </defs>
  
  <!-- 背景 -->
  <rect width="1920" height="1080" fill="url(#skyGradient)"/>
  
  <!-- 遠景の山 -->
  <path d="M0,800 L200,600 L400,650 L600,580 L800,620 L1000,550 L1200,600 L1400,520 L1600,580 L1800,500 L1920,520 L1920,1080 L0,1080 Z" fill="url(#mountainGradient)"/>
  
  <!-- 中景の山 -->
  <path d="M0,900 L300,700 L600,750 L900,680 L1200,720 L1500,650 L1800,700 L1920,680 L1920,1080 L0,1080 Z" fill="url(#mountainGradient)"/>
  
  <!-- 近景の岩場 -->
  <path d="M0,1000 L400,800 L800,850 L1200,780 L1600,820 L1920,800 L1920,1080 L0,1080 Z" fill="url(#rockGradient)"/>
  
  <!-- 岩のディテール -->
  <circle cx="300" cy="850" r="40" fill="#64748b" opacity="0.6"/>
  <circle cx="600" cy="820" r="35" fill="#475569" opacity="0.7"/>
  <circle cx="900" cy="840" r="45" fill="#64748b" opacity="0.5"/>
  <circle cx="1200" cy="810" r="30" fill="#475569" opacity="0.8"/>
  <circle cx="1500" cy="830" r="38" fill="#64748b" opacity="0.6"/>
  
  <!-- クライミングホールド（抽象的な表現） -->
  <circle cx="400" cy="750" r="8" fill="#f97316" opacity="0.8"/>
  <circle cx="700" cy="720" r="6" fill="#eab308" opacity="0.9"/>
  <circle cx="1000" cy="740" r="7" fill="#f97316" opacity="0.7"/>
  <circle cx="1300" cy="710" r="5" fill="#eab308" opacity="0.8"/>
  <circle cx="1600" cy="730" r="6" fill="#f97316" opacity="0.6"/>
  
  <!-- 太陽 -->
  <circle cx="1600" cy="200" r="80" fill="#eab308" opacity="0.4"/>
  <circle cx="1600" cy="200" r="60" fill="#f97316" opacity="0.3"/>
  
  <!-- 雲 -->
  <ellipse cx="500" cy="150" rx="60" ry="30" fill="#ffffff" opacity="0.3"/>
  <ellipse cx="1200" cy="180" rx="80" ry="40" fill="#ffffff" opacity="0.2"/>
  <ellipse cx="800" cy="120" rx="50" ry="25" fill="#ffffff" opacity="0.4"/>
  
  <!-- オーバーレイグラデーション -->
  <rect width="1920" height="1080" fill="url(#skyGradient)"/>
</svg>
