<svg width="800" height="400" viewBox="0 0 800 400" fill="none" xmlns="http://www.w3.org/2000/svg">
  <!-- 山のシルエット -->
  <defs>
    <linearGradient id="mountainSilhouette" x1="0%" y1="0%" x2="100%" y2="100%">
      <stop offset="0%" style="stop-color:#1e293b;stop-opacity:0.8" />
      <stop offset="50%" style="stop-color:#475569;stop-opacity:0.9" />
      <stop offset="100%" style="stop-color:#64748b;stop-opacity:1" />
    </linearGradient>
    
    <linearGradient id="sunsetGradient" x1="0%" y1="0%" x2="0%" y2="100%">
      <stop offset="0%" style="stop-color:#f97316;stop-opacity:0.4" />
      <stop offset="30%" style="stop-color:#eab308;stop-opacity:0.3" />
      <stop offset="70%" style="stop-color:#22c55e;stop-opacity:0.2" />
      <stop offset="100%" style="stop-color:#64748b;stop-opacity:0.1" />
    </linearGradient>
  </defs>
  
  <!-- 背景グラデーション -->
  <rect width="800" height="400" fill="url(#sunsetGradient)"/>
  
  <!-- 山のシルエット -->
  <path d="M0,400 L100,300 L200,320 L300,280 L400,300 L500,250 L600,270 L700,240 L800,260 L800,400 Z" fill="url(#mountainSilhouette)"/>
  
  <!-- 山のディテール -->
  <path d="M0,400 L150,350 L300,370 L450,330 L600,350 L750,320 L800,340 L800,400 Z" fill="url(#mountainSilhouette)" opacity="0.7"/>
  
  <!-- 岩のディテール -->
  <circle cx="200" cy="320" r="15" fill="#1e293b" opacity="0.6"/>
  <circle cx="400" cy="300" r="12" fill="#475569" opacity="0.7"/>
  <circle cx="600" cy="270" r="18" fill="#1e293b" opacity="0.5"/>
  
  <!-- クライミングホールド -->
  <circle cx="150" cy="310" r="4" fill="#f97316" opacity="0.8"/>
  <circle cx="350" cy="290" r="3" fill="#eab308" opacity="0.9"/>
  <circle cx="550" cy="260" r="5" fill="#f97316" opacity="0.7"/>
  <circle cx="750" cy="230" r="4" fill="#eab308" opacity="0.8"/>
</svg>
