<svg width="400" height="300" viewBox="0 0 400 300" fill="none" xmlns="http://www.w3.org/2000/svg">
  <!-- 岩のテクスチャパターン -->
  <defs>
    <pattern id="rockTexture" x="0" y="0" width="100" height="100" patternUnits="userSpaceOnUse">
      <!-- 岩の表面テクスチャ -->
      <circle cx="20" cy="20" r="3" fill="#64748b" opacity="0.3"/>
      <circle cx="60" cy="30" r="2" fill="#475569" opacity="0.4"/>
      <circle cx="80" cy="60" r="4" fill="#64748b" opacity="0.2"/>
      <circle cx="30" cy="70" r="2" fill="#475569" opacity="0.3"/>
      <circle cx="70" cy="80" r="3" fill="#64748b" opacity="0.4"/>
      
      <!-- 岩の亀裂 -->
      <path d="M10,10 L90,90" stroke="#1e293b" stroke-width="1" opacity="0.2"/>
      <path d="M90,10 L10,90" stroke="#1e293b" stroke-width="1" opacity="0.1"/>
    </pattern>
    
    <linearGradient id="rockGradient" x1="0%" y1="0%" x2="100%" y2="100%">
      <stop offset="0%" style="stop-color:#94a3b8;stop-opacity:0.8" />
      <stop offset="50%" style="stop-color:#64748b;stop-opacity:0.9" />
      <stop offset="100%" style="stop-color:#475569;stop-opacity:1" />
    </linearGradient>
  </defs>
  
  <!-- 岩の形状 -->
  <path d="M50,50 L150,30 L250,60 L350,40 L380,80 L360,120 L340,160 L320,200 L280,220 L240,240 L200,250 L160,240 L120,220 L80,200 L60,160 L40,120 L20,80 Z" fill="url(#rockGradient)"/>
  
  <!-- テクスチャパターンを適用 -->
  <path d="M50,50 L150,30 L250,60 L350,40 L380,80 L360,120 L340,160 L320,200 L280,220 L240,240 L200,250 L160,240 L120,220 L80,200 L60,160 L40,120 L20,80 Z" fill="url(#rockTexture)"/>
  
  <!-- クライミングホールド -->
  <circle cx="100" cy="100" r="12" fill="#f97316" opacity="0.9"/>
  <circle cx="200" cy="80" r="8" fill="#eab308" opacity="0.8"/>
  <circle cx="300" cy="120" r="10" fill="#f97316" opacity="0.7"/>
  <circle cx="150" cy="180" r="6" fill="#eab308" opacity="0.9"/>
  <circle cx="250" cy="200" r="9" fill="#f97316" opacity="0.8"/>
</svg>
